<?xml version="1.0" encoding="iso-8859-1"?>
<!-- Generator: Adobe Illustrator 19.0.0, SVG Export Plug-In . SVG Version: 6.00 Build 0)  -->
<svg version="1.1" id="Capa_1" xmlns="http://www.w3.org/2000/svg" xmlns:xlink="http://www.w3.org/1999/xlink" x="0px" y="0px"
	 viewBox="0 0 511.993 511.993" style="enable-background:new 0 0 511.993 511.993;" xml:space="preserve">
<linearGradient id="SVGID_1_" gradientUnits="userSpaceOnUse" x1="69.654" y1="448.2119" x2="416.1364" y2="101.7296" gradientTransform="matrix(1.0449 0 0 -1.0449 2.1993 543.3086)">
	<stop  offset="0" style="stop-color:#FFEC94"/>
	<stop  offset="1" style="stop-color:#FFCF00"/>
</linearGradient>
<circle style="fill:url(#SVGID_1_);" cx="255.996" cy="255.996" r="255.996"/>
<linearGradient id="SVGID_2_" gradientUnits="userSpaceOnUse" x1="168.8952" y1="379.7612" x2="331.9452" y2="379.7612" gradientTransform="matrix(1.0449 0 0 -1.0449 2.1993 543.3086)">
	<stop  offset="0" style="stop-color:#5B5A5F"/>
	<stop  offset="1" style="stop-color:#000000"/>
</linearGradient>
<path style="fill:url(#SVGID_2_);" d="M255.999,54.326c-49.937,0-90.564,40.627-90.564,90.564v40.091h33.351V144.89
	c0-31.548,25.667-57.214,57.215-57.214c31.548,0,57.214,25.665,57.214,57.214v93.79h33.351v-93.79
	C346.565,94.953,305.937,54.326,255.999,54.326z"/>
<linearGradient id="SVGID_3_" gradientUnits="userSpaceOnUse" x1="168.8952" y1="208.3312" x2="331.9452" y2="208.3312" gradientTransform="matrix(1.0449 0 0 -1.0449 2.1993 543.3086)">
	<stop  offset="0" style="stop-color:#6DD7A7"/>
	<stop  offset="1" style="stop-color:#00A758"/>
</linearGradient>
<path style="fill:url(#SVGID_3_);" d="M315.008,431.889H196.992c-35.093,0-63.807-28.713-63.807-63.807V250.039
	c0-16.871,13.804-30.675,30.675-30.675H348.14c16.871,0,30.675,13.804,30.675,30.675v118.043
	C378.815,403.175,350.102,431.889,315.008,431.889z"/>
<linearGradient id="SVGID_4_" gradientUnits="userSpaceOnUse" x1="168.8952" y1="208.3307" x2="331.9452" y2="208.3307" gradientTransform="matrix(1.0449 0 0 -1.0449 2.1993 543.3086)">
	<stop  offset="0" style="stop-color:#5B5A5F"/>
	<stop  offset="1" style="stop-color:#000000"/>
</linearGradient>
<path style="fill:url(#SVGID_4_);" d="M291.428,304.822c0-19.566-15.861-35.428-35.428-35.428s-35.428,15.861-35.428,35.428
	c0,13.941,8.073,25.966,19.781,31.749v29.643c0,8.606,7.041,15.647,15.647,15.647c8.606,0,15.647-7.041,15.647-15.647V336.57
	C283.356,330.788,291.428,318.762,291.428,304.822z"/>
<g>
</g>
<g>
</g>
<g>
</g>
<g>
</g>
<g>
</g>
<g>
</g>
<g>
</g>
<g>
</g>
<g>
</g>
<g>
</g>
<g>
</g>
<g>
</g>
<g>
</g>
<g>
</g>
<g>
</g>
</svg>
