<?xml version="1.0" encoding="iso-8859-1"?>
<!-- Generator: Adobe Illustrator 19.0.0, SVG Export Plug-In . SVG Version: 6.00 Build 0)  -->
<svg version="1.1" id="Capa_1" xmlns="http://www.w3.org/2000/svg" xmlns:xlink="http://www.w3.org/1999/xlink" x="0px" y="0px"
	 viewBox="0 0 511.993 511.993" style="enable-background:new 0 0 511.993 511.993;" xml:space="preserve">
<linearGradient id="SVGID_1_" gradientUnits="userSpaceOnUse" x1="69.654" y1="448.2119" x2="416.1364" y2="101.7296" gradientTransform="matrix(1.0449 0 0 -1.0449 2.1993 543.3086)">
	<stop  offset="0" style="stop-color:#5B5A5F"/>
	<stop  offset="1" style="stop-color:#000000"/>
</linearGradient>
<circle style="fill:url(#SVGID_1_);" cx="255.996" cy="255.996" r="255.996"/>
<linearGradient id="SVGID_2_" gradientUnits="userSpaceOnUse" x1="146.5982" y1="274.9673" x2="339.2002" y2="274.9673" gradientTransform="matrix(1.0449 0 0 -1.0449 2.1993 543.3086)">
	<stop  offset="0" style="stop-color:#FFFFFF"/>
	<stop  offset="1" style="stop-color:#AEADB3"/>
</linearGradient>
<path style="fill:url(#SVGID_2_);" d="M356.624,152.175c0-55.573-45.051-100.623-100.623-100.623S155.377,96.603,155.377,152.175
	c0,43.944,28.172,81.301,67.437,95.015v20.302v1.559v156.153l33.189,35.245l33.189-35.245v-19.827l-19.568-16.499l19.509-16.449
	l-19.509-16.449l19.509-16.449l-19.509-16.449l19.568-16.499v-37.533h13.353v-27.648
	C334.684,224.604,356.624,190.953,356.624,152.175z M256.001,80.193c13.403,0,24.267,10.865,24.267,24.267
	s-10.865,24.267-24.267,24.267s-24.267-10.865-24.267-24.267S242.598,80.193,256.001,80.193z"/>
<polygon style="fill:#8B8992;" points="256.003,267.492 256.003,460.449 240.174,443.64 240.174,267.492 "/>
<g>
</g>
<g>
</g>
<g>
</g>
<g>
</g>
<g>
</g>
<g>
</g>
<g>
</g>
<g>
</g>
<g>
</g>
<g>
</g>
<g>
</g>
<g>
</g>
<g>
</g>
<g>
</g>
<g>
</g>
</svg>
