<svg id="Capa_1" enable-background="new 0 0 512 512" height="512" viewBox="0 0 512 512" width="512" xmlns="http://www.w3.org/2000/svg"><path d="m383.5 512h-360c-8.284 0-15-6.716-15-15v-482c0-8.284 6.716-15 15-15h360c8.284 0 15 6.716 15 15v482c0 8.284-6.716 15-15 15z" fill="#e1f5ff"/><path d="m383.5 0h-180v512h180c8.284 0 15-6.716 15-15v-482c0-8.284-6.716-15-15-15z" fill="#c8e1f5"/><path d="m188.5 250h-140c-8.284 0-15-6.716-15-15v-10c0-46.869 38.131-85 85-85s85 38.131 85 85v10c0 8.284-6.716 15-15 15z" fill="#ff823c"/><path d="m118.5 170c-30.327 0-55-24.673-55-55s24.673-55 55-55 55 24.673 55 55-24.673 55-55 55z" fill="#ffd0af"/><path d="m323.5 115h-60c-8.284 0-15-6.716-15-15s6.716-15 15-15h60c8.284 0 15 6.716 15 15s-6.716 15-15 15z" fill="#435569"/><path d="m323.5 175h-60c-8.284 0-15-6.716-15-15s6.716-15 15-15h60c8.284 0 15 6.716 15 15s-6.716 15-15 15z" fill="#435569"/><path d="m188.5 362h-140c-8.284 0-15-6.716-15-15s6.716-15 15-15h140c8.284 0 15 6.716 15 15s-6.716 15-15 15z" fill="#556e87"/><path d="m196.143 422h-147.643c-8.284 0-15-6.716-15-15s6.716-15 15-15h147.643c8.284 0 15 6.716 15 15s-6.716 15-15 15z" fill="#556e87"/><path d="m237.477 325.525c-.867.867-1.625 1.837-2.255 2.889l-42.426 70.711c-3.542 5.902-2.612 13.457 2.255 18.324s12.422 5.797 18.324 2.255l70.711-42.426c1.052-.63 2.022-1.388 2.889-2.255l-5.425-44.072z" fill="#fff064"/><path d="m195.224 417.609c4.871 4.721 12.316 5.597 18.15 2.096l70.711-42.427c1.052-.63 2.022-1.388 2.889-2.255l-5.389-43.776z" fill="#ffdc1e"/><path d="m286.975 375.356 127.279-127.279c5.858-5.858 5.858-15.355 0-21.213l-28.284-28.284c-5.858-5.858-15.355-5.858-21.213 0l-127.28 127.279 49.498 49.497c-.001 0-.001 0 0 0z" fill="#00afff"/><path d="m400.112 212.722-137.886 137.886 24.749 24.749 127.279-127.279c5.858-5.858 5.858-15.355 0-21.213z" fill="#008cfa"/><path d="m364.756 198.579 42.426-42.426c5.858-5.858 15.355-5.858 21.213 0l28.284 28.284c5.858 5.858 5.858 15.355 0 21.213l-42.426 42.426z" fill="#fff064"/><path d="m442.538 170.295-53.033 53.033 24.749 24.749 42.426-42.426c5.858-5.858 5.858-15.355 0-21.213z" fill="#ffdc1e"/><path d="m407.183 156.153 42.426-42.426c5.858-5.858 15.355-5.858 21.213 0l28.284 28.284c5.858 5.858 5.858 15.355 0 21.213l-42.426 42.426z" fill="#00afff"/><path d="m484.965 127.869-53.033 53.033 24.749 24.749 42.427-42.427c5.858-5.858 5.858-15.355 0-21.213z" fill="#008cfa"/></svg>